<?xml version="1.0" encoding="utf-8"?>
<!-- Generator: Adobe Illustrator 24.0.0, SVG Export Plug-In . SVG Version: 6.00 Build 0)  -->
<svg version="1.1" id="Layer_1" xmlns="http://www.w3.org/2000/svg" xmlns:xlink="http://www.w3.org/1999/xlink" x="0px" y="0px"
	 viewBox="0 0 231 43" style="enable-background:new 0 0 231 43;" xml:space="preserve">
<style type="text/css">
	.st0{fill:#232323;}
	.st1{fill:#007AFF;}
	.st2{fill:#6A279A;}
	.st3{fill:#FFFFFF;}
</style>
<g>
	<path class="st0" d="M8.2,11.7h4.7l4.9,13.8c2.1-6.5,3.8-10.7,4.9-12.6c0.9-1.7,2.1-2.9,3.6-3.8c1.5-0.9,3.1-1.3,5-1.3
		c0.6,0,1.2,0,1.8,0.1l-0.5,4.4c-0.5-0.1-0.9-0.1-1.3-0.1c-2.1,0-3.7,0.9-4.7,2.8c-0.7,1.2-1.5,3.2-2.5,5.8c-1,2.7-1.8,5.3-2.7,7.9
		c-0.8,2.6-1.3,4-1.3,4.2l-0.3,0.2L16,33.4L8.2,11.7z"/>
	<path class="st0" d="M39.7,15.2h-2.9v-3.9h10.4v3.9h-3.1v13.7h-4.4V15.2z M36.8,29.5h10.4v3.9H36.8V29.5z"/>
	<path class="st0" d="M55.7,11.7h6.8c1.9,0,3.8,0.5,5.4,1.5c1.7,1,3,2.3,4,4c1,1.7,1.5,3.5,1.5,5.4c0,2-0.5,3.8-1.5,5.5
		c-1,1.7-2.3,3-4,4c-1.7,1-3.5,1.5-5.4,1.5h-6.8V11.7z M62.4,29c1.2,0,2.3-0.3,3.3-0.9c1-0.6,1.8-1.4,2.3-2.3c0.6-1,0.9-2.1,0.9-3.3
		c0-1.2-0.3-2.2-0.9-3.2s-1.4-1.8-2.3-2.3c-1-0.6-2.1-0.9-3.3-0.9h-2.4V29H62.4z"/>
	<path class="st0" d="M84.6,15.2h-2.9v-3.9h10.4v3.9H89v13.7h-4.4V15.2z M81.8,29.5h10.4v3.9H81.8V29.5z"/>
</g>
<path class="st1" d="M144.3,32c-1.7-1-3-2.3-4-4s-1.5-3.5-1.5-5.5c0-2,0.5-3.8,1.5-5.4s2.3-3,4-4c1.7-1,3.5-1.5,5.4-1.5
	c2,0,3.9,0.5,5.7,1.6s3.1,2.5,4,4.3l-3.9,2.1c-0.6-1.1-1.4-2-2.4-2.7c-1-0.7-2.2-1-3.4-1c-1.2,0-2.3,0.3-3.3,0.9
	c-1,0.6-1.8,1.4-2.4,2.3c-0.6,1-0.9,2.1-0.9,3.3c0,1.2,0.3,2.3,0.9,3.3c0.6,1,1.4,1.8,2.4,2.3c1,0.6,2.1,0.9,3.3,0.9
	c1.3,0,2.4-0.3,3.5-1s1.9-1.6,2.4-2.8l3.9,2.1c-0.9,1.9-2.3,3.4-4,4.5c-1.8,1.1-3.7,1.7-5.8,1.7C147.8,33.4,145.9,32.9,144.3,32z"/>
<path class="st1" d="M173.3,32c-1.7-1-3-2.3-4-4s-1.5-3.5-1.5-5.5c0-2,0.5-3.8,1.5-5.4s2.3-3,4-4c1.7-1,3.5-1.5,5.5-1.5
	c1.9,0,3.8,0.5,5.4,1.5c1.7,1,3,2.3,4,4s1.5,3.5,1.5,5.4c0,2-0.5,3.8-1.5,5.5s-2.3,3-4,4c-1.7,1-3.5,1.5-5.4,1.5
	C176.8,33.4,174.9,32.9,173.3,32z M182,28.1c1-0.6,1.8-1.4,2.4-2.4c0.6-1,0.9-2.1,0.9-3.2c0-1.2-0.3-2.2-0.9-3.2
	c-0.6-1-1.4-1.8-2.4-2.3c-1-0.6-2.1-0.9-3.2-0.9c-1.2,0-2.3,0.3-3.3,0.9s-1.8,1.4-2.4,2.3c-0.6,1-0.9,2.1-0.9,3.2
	c0,1.2,0.3,2.3,0.9,3.3c0.6,1,1.4,1.8,2.4,2.3c1,0.6,2.1,0.9,3.3,0.9C179.9,29,181,28.7,182,28.1z"/>
<path class="st1" d="M198,11.7h4.5l7,12.8V11.7h4.4v21.6l-0.3,0.2h-4.2l-7-12.8v12.8H198V11.7z"/>
<g>
	<g>
		<g>
			<path class="st2" d="M101.5,11.3v16.9c0,1.6,1.3,2.8,2.8,2.8h19.7l5.6,5.6l0-25.3c0-1.6-1.2-2.8-2.8-2.8h-22.5
				C102.7,8.5,101.5,9.8,101.5,11.3z"/>
		</g>
	</g>
	<rect x="104.4" y="11.7" class="st3" width="21.7" height="15.6"/>
	<g>
		<g>
			<path class="st1" d="M126.7,8.5h-22.5c-1.6,0-2.8,1.3-2.8,2.8l0,25.3l5.6-5.6h19.7c1.6,0,2.8-1.3,2.8-2.8V11.3
				C129.5,9.8,128.3,8.5,126.7,8.5z M123.9,25.4l-5.6-4.5v4.5h-11.2V14.1h11.2v4.5l5.6-4.5V25.4z"/>
		</g>
	</g>
</g>
</svg>
